<svg id="Laag_1" data-name="Laag 1" xmlns="http://www.w3.org/2000/svg" xmlns:xlink="http://www.w3.org/1999/xlink" viewBox="0 0 1408.03 1408.04"><defs><style>.cls-1{fill:none;}.cls-2{clip-path:url(#clip-path);}.cls-3{fill:#af1b1b;}</style><clipPath id="clip-path" transform="translate(-45.98 -44.32)"><rect class="cls-1" width="1500" height="1500"/></clipPath></defs><title>kv-logo-bm</title><g class="cls-2"><path class="cls-3" d="M1293.43,44.32C1179.8,164.45,1080.56,291,997.73,421.57,896.65,580.9,819,747.8,766.83,917.63a1847.71,1847.71,0,0,0-55.46,233.78L486,532.23q-44.49,73.85-81.61,150l280.3,770.09H814c0-6.21.06-12.42.13-18.62C819.39,918.88,1043,440.6,1454,44.32Z" transform="translate(-45.98 -44.32)"/><path class="cls-3" d="M346.68,684.3c.53-1.14,1.05-2.29,1.59-3.43q10.43-22.1,21.47-44,5.22-10.38,10.59-20.71,17.28-33.31,36-66.2,12.25-21.54,25.08-42.88,10.92-18.17,22.31-36.18Q499,414.81,538.5,360.12q14.91-20.62,30.4-41Q607.63,268,650,218.37q16.93-19.86,34.45-39.5Q745.73,110.14,814,44.32H653.41q-10.65,11.26-21.13,22.6-21,22.68-41.25,45.64t-39.87,46.19q-9.79,11.63-19.4,23.3Q512.53,205.42,494,229t-36.3,47.47q-53.34,71.57-100,145.06-37.91,59.76-71.39,120.85-4.2,7.62-8.3,15.28-8.22,15.3-16.17,30.68t-15.61,30.81Q206.19,700,174,782.39v-389L46,428.33v1024H174a1783.79,1783.79,0,0,1,46.81-407.23q5.47-23.39,11.58-46.64,3-11.62,6.26-23.21,6.42-23.16,13.46-46.18,11.68-38.24,25.15-76l28.12,77.28,190,522H626.22L371.73,753.14Z" transform="translate(-45.98 -44.32)"/></g></svg>