<?xml version="1.0" encoding="utf-8"?>
<!-- Generator: Adobe Illustrator 24.0.1, SVG Export Plug-In . SVG Version: 6.00 Build 0)  -->
<svg version="1.1" id="Layer_1" xmlns="http://www.w3.org/2000/svg" xmlns:xlink="http://www.w3.org/1999/xlink" x="0px" y="0px"
	 viewBox="0 0 1000 458.2" enable-background="new 0 0 1000 458.2" xml:space="preserve">
<g>
	<polygon fill="#fff" points="319.17,244.76 232.33,437.74 73.56,84.89 146.64,0 127.59,0 16.75,127.31 15.99,127.31 15.99,0 
		0,0 0,229.1 15.99,229.1 15.99,150.26 62.58,97.13 223.12,458.2 223.13,458.2 241.54,458.2 241.55,458.2 336.45,244.76 	"/>
	<g>
		<path fill="#575757" d="M195.4,108.54l-42.84,121.58h8.56l14.35-41.73h48.1l14.15,41.73h9l-42.84-121.58H195.4z M221.16,181.29
			h-43.25l7.82-22.75c4.94-14.43,9.23-27.16,13.47-41.99h0.74c4.28,14.81,8.56,27.56,13.51,41.99L221.16,181.29z"/>
		<path fill="#575757" d="M311.05,167.43l-18.39-8.21c-8.89-3.91-21.03-9.26-21.03-23.45c0-13.15,10.77-21.73,26.83-21.73
			c12.18,0,21.84,4.94,28.96,12.49l4.91-5.64c-7.41-7.9-19.22-14.56-33.87-14.56c-20.22,0-35.35,12.3-35.35,29.96
			c0,18.01,14.08,25.57,24.66,30.24l18.43,8.27c11.98,5.39,21.88,10.22,21.88,25.4c0,14.48-11.7,24.43-30.26,24.43
			c-14.17,0-26.86-6.46-35.68-16.44l-5.46,5.83c9.59,10.79,23.28,18.32,41.07,18.32c16.16,0,28.44-6.62,34.56-16.79
			c1.2-1.99,2.15-4.12,2.86-6.35c0.96-3.01,1.47-6.22,1.47-9.58C336.64,181.01,324.67,173.5,311.05,167.43z"/>
		<path fill="#575757" d="M396.97,108.63c-1.36-0.05-2.74-0.09-4.17-0.09h-12.35h-18.28v40.62v37.71v43.25h8.48v-52.29h22.88
			c27.08,0,43.32-11.57,43.32-35.42C436.86,118.76,421.98,109.52,396.97,108.63z M391.4,170.68h-20.74v-2.88v-37.49V115.7h6.57
			h13.43c1.11,0,2.05,0.09,3.11,0.11c22.94,0.55,34.34,7.17,34.34,26.6C428.12,162.41,416.24,170.68,391.4,170.68z"/>
		<polygon fill="#575757" points="471.96,169.2 520.7,169.2 520.7,161.9 471.96,161.9 471.96,115.85 530,115.85 530,108.54 
			463.47,108.54 463.47,230.12 531.84,230.12 531.84,222.82 471.96,222.82 		"/>
		<path fill="#575757" d="M602.06,173.73c19.13-2.54,31.19-13.75,31.19-33.09c0-23.25-15.83-32.1-40-32.1h-34.76v121.58h8.49v-55.83
			h25.84l32.9,55.83h9.85L602.06,173.73z M566.97,167.14V115.7h24.06c21.51,0,33.47,6.64,33.47,24.94
			c0,17.97-11.96,26.49-33.47,26.49H566.97z"/>
	</g>
	<g>
		<polygon fill="#999999" points="356.21,324.32 404.95,324.32 404.95,317.02 356.21,317.02 356.21,270.97 414.25,270.97 
			414.25,263.66 347.73,263.66 347.73,385.24 416.1,385.24 416.1,377.94 356.21,377.94 		"/>
		<path fill="#999999" d="M517.5,295.76c0-23.25-15.83-32.1-39.99-32.1h-34.76v121.58h8.48v-55.83h25.84l32.91,55.83h9.85
			l-33.51-56.39C505.44,326.31,517.5,315.1,517.5,295.76z M451.23,322.26v-51.44h24.06c21.51,0,33.47,6.64,33.47,24.94
			c0,17.97-11.96,26.5-33.47,26.5H451.23z"/>
		<path fill="#999999" d="M585.53,322.55l-18.39-8.21c-8.89-3.91-21.03-9.26-21.03-23.45c0-13.16,10.78-21.73,26.83-21.73
			c12.18,0,21.85,4.94,28.96,12.49l4.91-5.64c-7.42-7.9-19.22-14.55-33.87-14.55c-20.22,0-35.35,12.31-35.35,29.96
			c0,18.01,14.08,25.57,24.67,30.24l18.43,8.27c11.97,5.39,21.88,10.22,21.88,25.41c0,14.48-11.7,24.43-30.26,24.43
			c-14.17,0-26.86-6.46-35.68-16.44l-5.46,5.83c9.59,10.79,23.28,18.32,41.07,18.32c23.58,0,38.89-14.09,38.89-32.73
			C611.11,336.13,599.14,328.62,585.53,322.55z"/>
		<polygon fill="#999999" points="620.46,270.97 659.16,270.97 659.16,385.24 667.65,385.24 667.65,270.97 706.35,270.97 
			706.35,263.66 620.46,263.66 		"/>
		<polygon fill="#999999" points="738.12,324.32 786.87,324.32 786.87,317.02 738.12,317.02 738.12,270.97 796.17,270.97 
			796.17,263.66 729.64,263.66 729.64,385.24 798.01,385.24 798.01,377.94 738.12,377.94 		"/>
		<polygon fill="#999999" points="833.14,324.32 881.88,324.32 881.88,317.02 833.14,317.02 833.14,270.97 891.18,270.97 
			891.18,263.66 824.65,263.66 824.65,385.24 893.03,385.24 893.03,377.94 833.14,377.94 		"/>
		<path fill="#999999" d="M962.88,325.47v7.23h29v37.86c-5.87,5.79-16.2,9.19-27.16,9.19c-27.71,0-43.98-21.85-43.98-55.64
			c0-33.72,17.16-54.94,45.02-54.94c13.25,0,21.81,5.68,28.04,12.51l4.98-5.68c-6.49-6.83-16.75-14.54-33.13-14.54
			c-32.1,0-53.8,24.2-53.8,62.76c0,38.63,20.96,63.24,52.21,63.24c15.98,0,28.45-5.64,35.94-13.76v-48.23H962.88z"/>
	</g>
</g>
</svg>
