<svg id="Laag_1" data-name="Laag 1" xmlns="http://www.w3.org/2000/svg" xmlns:xlink="http://www.w3.org/1999/xlink" viewBox="0 0 1266 300"><defs><style>.cls-1{fill:none;}.cls-2{fill:#575757;}.cls-3{clip-path:url(#clip-path);}.cls-4{fill:#999;}.cls-5{fill:#af1b1b;}</style><clipPath id="clip-path" transform="translate(0 -1.46)"><rect class="cls-1" x="-116.88" y="-598.54" width="1500" height="1500"/></clipPath></defs><title>kv-logo-full</title><polygon class="cls-2" points="246.22 269.34 246.22 171.86 255.84 171.86 255.84 228.5 309.6 171.72 320.19 171.72 280.31 214.62 322.25 269.34 311.66 269.34 274.26 220.25 255.84 239.36 255.84 269.34 246.22 269.34"/><g class="cls-3"><path class="cls-2" d="M350.71,272.17a25.25,25.25,0,0,1-9.42-1.72,23.52,23.52,0,0,1-7.56-4.74,21.37,21.37,0,0,1-6.81-15.81,17.7,17.7,0,0,1,2.2-8.66,21,21,0,0,1,6.19-6.88,30.54,30.54,0,0,1,9.49-4.47,43.81,43.81,0,0,1,12.1-1.58,66.24,66.24,0,0,1,11.13,1,48.84,48.84,0,0,1,10,2.75v-6.46q0-9.48-5.36-15.05t-14.85-5.57a31.5,31.5,0,0,0-11.28,2.2,54.2,54.2,0,0,0-11.68,6.32l-3.3-6.19q13.89-9.35,26.95-9.35,13.47,0,21.17,7.57t7.7,20.9V258.7c0,2.56,1.15,3.85,3.44,3.85v8.25a22.83,22.83,0,0,1-3.58.41,8.07,8.07,0,0,1-5.57-1.79,6.71,6.71,0,0,1-2.13-4.95l-.27-5.64a32.49,32.49,0,0,1-12.44,9.9,38.36,38.36,0,0,1-16.16,3.44m2.2-7.15a32.24,32.24,0,0,0,13.41-2.75A21.9,21.9,0,0,0,375.6,255a8.44,8.44,0,0,0,1.85-2.68,6.86,6.86,0,0,0,.62-2.68V237.94a57.51,57.51,0,0,0-9.69-2.75,54.45,54.45,0,0,0-10.25-1q-9.9,0-16.08,4.13t-6.19,10.86a14.73,14.73,0,0,0,1.31,6.19,15.74,15.74,0,0,0,3.57,5,16.79,16.79,0,0,0,5.43,3.37,18.45,18.45,0,0,0,6.74,1.23" transform="translate(0 -1.46)"/><path class="cls-2" d="M431.42,272.17a49.91,49.91,0,0,1-16.36-2.75,39.28,39.28,0,0,1-13.75-8l4.26-6.33a46.46,46.46,0,0,0,12.31,7.43,36.06,36.06,0,0,0,13.4,2.47q8.67,0,13.82-3.5a11.35,11.35,0,0,0,5.16-10,8.61,8.61,0,0,0-1.38-5,11.94,11.94,0,0,0-4.06-3.51,32,32,0,0,0-6.73-2.68q-4.06-1.17-9.42-2.4-6.19-1.51-10.73-3a32.63,32.63,0,0,1-7.49-3.44,12.35,12.35,0,0,1-4.4-4.74,15.49,15.49,0,0,1-1.44-7.08,20.38,20.38,0,0,1,2.13-9.49,19.23,19.23,0,0,1,5.77-6.8A26.23,26.23,0,0,1,421,199.3a38.34,38.34,0,0,1,10.38-1.37,40.2,40.2,0,0,1,15,2.68,29.44,29.44,0,0,1,10.86,7.08l-4.54,5.5A25.13,25.13,0,0,0,443,207a34.64,34.64,0,0,0-11.9-2.06,29.76,29.76,0,0,0-6.87.75,16.63,16.63,0,0,0-5.57,2.41,11.87,11.87,0,0,0-3.78,4.19,12.38,12.38,0,0,0-1.38,6,9.73,9.73,0,0,0,1,4.67,8.17,8.17,0,0,0,3.16,3.09,25.7,25.7,0,0,0,5.57,2.34q3.36,1,8.18,2.13,6.87,1.65,12.1,3.3a38.4,38.4,0,0,1,8.73,3.85,15.21,15.21,0,0,1,5.29,5.36,15.46,15.46,0,0,1,1.79,7.7,18.69,18.69,0,0,1-7.56,15.68q-7.56,5.78-20.35,5.77" transform="translate(0 -1.46)"/><path class="cls-2" d="M511.16,272.17a28.26,28.26,0,0,1-16-4.6A36.67,36.67,0,0,1,483.94,256v44.13h-9.35V199.16H483v13.89a34.78,34.78,0,0,1,11.41-10.93,29.16,29.16,0,0,1,15.26-4.19A30,30,0,0,1,523.26,201,34.94,34.94,0,0,1,534,209.27a38.5,38.5,0,0,1,7.08,11.89,39.12,39.12,0,0,1,2.54,13.89,43.53,43.53,0,0,1-2.33,14.3,36.63,36.63,0,0,1-6.67,11.82,32.2,32.2,0,0,1-10.31,8.05,29.27,29.27,0,0,1-13.14,2.95m-2.61-8.25a22.39,22.39,0,0,0,10.52-2.47,26.17,26.17,0,0,0,8.11-6.53,29.28,29.28,0,0,0,5.16-9.22,32.27,32.27,0,0,0,1.79-10.65,29.58,29.58,0,0,0-2.07-11,30.36,30.36,0,0,0-5.63-9.21,26.92,26.92,0,0,0-8.46-6.33,24,24,0,0,0-10.52-2.33,21.7,21.7,0,0,0-7.49,1.44,31,31,0,0,0-7.29,3.85,25.55,25.55,0,0,0-5.77,5.64,15.14,15.14,0,0,0-3,6.8v22a33,33,0,0,0,4.19,7.15,29.75,29.75,0,0,0,5.78,5.71,27.89,27.89,0,0,0,6.94,3.78,22.16,22.16,0,0,0,7.7,1.37" transform="translate(0 -1.46)"/><path class="cls-2" d="M590.36,272.17A34.43,34.43,0,0,1,576,269.22a35.23,35.23,0,0,1-11.34-8.12,37.62,37.62,0,0,1-7.5-11.89,38.82,38.82,0,0,1-2.68-14.44,38,38,0,0,1,2.68-14.23,36.9,36.9,0,0,1,7.43-11.68,35.13,35.13,0,0,1,11.34-8,34.87,34.87,0,0,1,39.88,8.05,37.83,37.83,0,0,1,9.9,25.71v2.2a5.6,5.6,0,0,1-.14,1.51H564.24A29.83,29.83,0,0,0,566.92,249a29.19,29.19,0,0,0,5.84,8.46,26.22,26.22,0,0,0,8.18,5.57,24.47,24.47,0,0,0,9.83,2,25.55,25.55,0,0,0,6.88-1,27.61,27.61,0,0,0,6.32-2.61,23.32,23.32,0,0,0,5.23-4.06,17.46,17.46,0,0,0,3.57-5.29l8.11,2.2a24,24,0,0,1-4.67,7.22,32.88,32.88,0,0,1-7,5.63,34.27,34.27,0,0,1-8.8,3.72,38.23,38.23,0,0,1-10,1.3m26.4-41a29.07,29.07,0,0,0-2.68-10.52,28.55,28.55,0,0,0-5.78-8.18,25.42,25.42,0,0,0-8.11-5.36,25.12,25.12,0,0,0-9.83-1.93,25.61,25.61,0,0,0-9.9,1.93,25.29,25.29,0,0,0-8.18,5.36,26.27,26.27,0,0,0-5.64,8.25,31.13,31.13,0,0,0-2.54,10.45Z" transform="translate(0 -1.46)"/><path class="cls-2" d="M675.88,207.41a29.47,29.47,0,0,0-16.5,5.23,26.36,26.36,0,0,0-9.9,13.61V270.8h-9.35V199.16h8.8v17.19a32.54,32.54,0,0,1,10.72-12.92,24.87,24.87,0,0,1,14.44-4.68,9.61,9.61,0,0,1,1.79.14Z" transform="translate(0 -1.46)"/><polygon class="cls-4" points="716.99 171.72 751.91 257.38 786.7 171.72 796.74 171.72 756.04 269.34 747.65 269.34 706.95 171.72 716.99 171.72"/><path class="cls-4" d="M831,272.17a34.49,34.49,0,0,1-14.37-2.95,35.23,35.23,0,0,1-11.34-8.12,37.42,37.42,0,0,1-7.49-11.89,38.62,38.62,0,0,1-2.68-14.44,37.75,37.75,0,0,1,2.68-14.23,36.7,36.7,0,0,1,7.42-11.68,35.17,35.17,0,0,1,11.35-8,34.87,34.87,0,0,1,39.87,8.05,37.7,37.7,0,0,1,9.9,25.71v2.2a5.6,5.6,0,0,1-.14,1.51H804.85A30,30,0,0,0,807.53,249a29.19,29.19,0,0,0,5.84,8.46,26.34,26.34,0,0,0,8.18,5.57,24.48,24.48,0,0,0,9.84,2,25.48,25.48,0,0,0,6.87-1,27.61,27.61,0,0,0,6.32-2.61,23.32,23.32,0,0,0,5.23-4.06,17.28,17.28,0,0,0,3.57-5.29l8.12,2.2a23.83,23.83,0,0,1-4.68,7.22,32.63,32.63,0,0,1-7,5.63,34.13,34.13,0,0,1-8.8,3.72,38.23,38.23,0,0,1-10,1.3m26.4-41a28.75,28.75,0,0,0-8.45-18.7,25.58,25.58,0,0,0-8.12-5.36,25.12,25.12,0,0,0-9.83-1.93,25.79,25.79,0,0,0-18.08,7.29,26.27,26.27,0,0,0-5.64,8.25,31.37,31.37,0,0,0-2.54,10.45Z" transform="translate(0 -1.46)"/><path class="cls-4" d="M916.49,207.41a29.49,29.49,0,0,0-16.5,5.23,26.42,26.42,0,0,0-9.9,13.61V270.8h-9.35V199.16h8.8v17.19a32.48,32.48,0,0,1,10.73-12.92,24.82,24.82,0,0,1,14.43-4.68,9.53,9.53,0,0,1,1.79.14Z" transform="translate(0 -1.46)"/><path class="cls-4" d="M952.79,272.17a49.91,49.91,0,0,1-16.36-2.75,39.28,39.28,0,0,1-13.75-8l4.26-6.33a46.46,46.46,0,0,0,12.31,7.43,36.1,36.1,0,0,0,13.4,2.47q8.67,0,13.82-3.5a11.35,11.35,0,0,0,5.16-10,8.61,8.61,0,0,0-1.38-5,11.94,11.94,0,0,0-4.06-3.51,32,32,0,0,0-6.73-2.68q-4.07-1.17-9.42-2.4-6.19-1.51-10.72-3a32.53,32.53,0,0,1-7.5-3.44,12.42,12.42,0,0,1-4.4-4.74,15.49,15.49,0,0,1-1.44-7.08,20.38,20.38,0,0,1,2.13-9.49,19.23,19.23,0,0,1,5.77-6.8,26.23,26.23,0,0,1,8.53-4.06,38.34,38.34,0,0,1,10.38-1.37,40.2,40.2,0,0,1,15,2.68,29.44,29.44,0,0,1,10.86,7.08l-4.54,5.5a25.13,25.13,0,0,0-9.69-6.19,34.62,34.62,0,0,0-11.89-2.06,29.79,29.79,0,0,0-6.88.75,16.63,16.63,0,0,0-5.57,2.41,12,12,0,0,0-3.78,4.19,12.38,12.38,0,0,0-1.37,6,9.85,9.85,0,0,0,1,4.67A8.17,8.17,0,0,0,939,226a25.91,25.91,0,0,0,5.57,2.34q3.36,1,8.18,2.13,6.87,1.65,12.1,3.3a38.4,38.4,0,0,1,8.73,3.85,15.21,15.21,0,0,1,5.29,5.36,15.46,15.46,0,0,1,1.79,7.7,18.69,18.69,0,0,1-7.56,15.68q-7.56,5.78-20.35,5.77" transform="translate(0 -1.46)"/><path class="cls-4" d="M1030.34,267.36c-.55.27-1.36.64-2.41,1.1s-2.27.92-3.64,1.37a41.3,41.3,0,0,1-4.68,1.24,26.37,26.37,0,0,1-5.5.55,20,20,0,0,1-5.77-.82,13.3,13.3,0,0,1-4.81-2.55,12.36,12.36,0,0,1-3.3-4.33,13.91,13.91,0,0,1-1.24-6.05V206.59h-9.9v-7.43H999V175h9.35v24.2h16.5v7.43h-16.5v48.67a7.38,7.38,0,0,0,2.82,5.84A9.62,9.62,0,0,0,1017,263a17.4,17.4,0,0,0,7-1.31,31.87,31.87,0,0,0,3.85-1.85Z" transform="translate(0 -1.46)"/><path class="cls-4" d="M1071.17,272.17a34.49,34.49,0,0,1-14.37-2.95,35.23,35.23,0,0,1-11.34-8.12,37.59,37.59,0,0,1-7.49-11.89,38.62,38.62,0,0,1-2.68-14.44,37.75,37.75,0,0,1,2.68-14.23,36.87,36.87,0,0,1,7.42-11.68,35.17,35.17,0,0,1,11.35-8,34.87,34.87,0,0,1,39.87,8.05,37.7,37.7,0,0,1,9.9,25.71v2.2a5.6,5.6,0,0,1-.14,1.51h-61.32a30,30,0,0,0,2.68,10.65,29.19,29.19,0,0,0,5.84,8.46,26.34,26.34,0,0,0,8.18,5.57,24.48,24.48,0,0,0,9.84,2,25.42,25.42,0,0,0,6.87-1,27.61,27.61,0,0,0,6.32-2.61,23.32,23.32,0,0,0,5.23-4.06,17.28,17.28,0,0,0,3.57-5.29l8.12,2.2a23.83,23.83,0,0,1-4.68,7.22,32.63,32.63,0,0,1-7,5.63,34.13,34.13,0,0,1-8.8,3.72,38.18,38.18,0,0,1-10,1.3m26.4-41a28.75,28.75,0,0,0-8.45-18.7,25.58,25.58,0,0,0-8.12-5.36,25.09,25.09,0,0,0-9.83-1.93,25.79,25.79,0,0,0-18.08,7.29,26.24,26.24,0,0,0-5.63,8.25,31.14,31.14,0,0,0-2.55,10.45Z" transform="translate(0 -1.46)"/><path class="cls-4" d="M1151.88,272.17a34.49,34.49,0,0,1-14.37-2.95,35.23,35.23,0,0,1-11.34-8.12,37.42,37.42,0,0,1-7.49-11.89,38.62,38.62,0,0,1-2.68-14.44,37.75,37.75,0,0,1,2.68-14.23,36.7,36.7,0,0,1,7.42-11.68,35.13,35.13,0,0,1,11.34-8,34.87,34.87,0,0,1,39.88,8.05,37.83,37.83,0,0,1,9.9,25.71v2.2a5.6,5.6,0,0,1-.14,1.51h-61.32a30,30,0,0,0,2.68,10.65,29.19,29.19,0,0,0,5.84,8.46,26.22,26.22,0,0,0,8.18,5.57,24.47,24.47,0,0,0,9.83,2,25.49,25.49,0,0,0,6.88-1,27.61,27.61,0,0,0,6.32-2.61,23.32,23.32,0,0,0,5.23-4.06,17.46,17.46,0,0,0,3.57-5.29l8.11,2.2a23.8,23.8,0,0,1-4.67,7.22,32.63,32.63,0,0,1-7,5.63,34.13,34.13,0,0,1-8.8,3.72,38.23,38.23,0,0,1-10,1.3m26.4-41a29.07,29.07,0,0,0-2.68-10.52,28.55,28.55,0,0,0-5.78-8.18,25.42,25.42,0,0,0-8.11-5.36,25.12,25.12,0,0,0-9.83-1.93,25.65,25.65,0,0,0-9.9,1.93,25.29,25.29,0,0,0-8.18,5.36,26.27,26.27,0,0,0-5.64,8.25,31.13,31.13,0,0,0-2.54,10.45Z" transform="translate(0 -1.46)"/><path class="cls-4" d="M1230.39,271.76a29.57,29.57,0,0,1-13.54-3.09,35,35,0,0,1-10.59-8.19,37.3,37.3,0,0,1-7-11.68,38.46,38.46,0,0,1-2.47-13.61,42.2,42.2,0,0,1,2.41-14.23,36.6,36.6,0,0,1,6.8-11.9,33.24,33.24,0,0,1,10.52-8.11,30.08,30.08,0,0,1,13.54-3,27.57,27.57,0,0,1,16,4.6,44.18,44.18,0,0,1,11.55,11.62v-15H1266v71.91a29.25,29.25,0,0,1-2.82,13.13,28.35,28.35,0,0,1-7.56,9.56,32.23,32.23,0,0,1-11.14,5.77,46.51,46.51,0,0,1-13.54,1.93q-12.37,0-19.94-4.4a35.27,35.27,0,0,1-12.24-11.83l5.78-4.53a25.75,25.75,0,0,0,11.27,10.1,35.65,35.65,0,0,0,15.13,3.23,33.48,33.48,0,0,0,9.9-1.44,24.59,24.59,0,0,0,8.18-4.26,20.12,20.12,0,0,0,5.57-7.15,23.37,23.37,0,0,0,2.06-10.11V256.91a29.92,29.92,0,0,1-11.27,10.86,30.36,30.36,0,0,1-15,4m2.61-7.84a22.66,22.66,0,0,0,8.11-1.51,27,27,0,0,0,7.22-4.06,26.56,26.56,0,0,0,5.43-5.7,17.54,17.54,0,0,0,2.89-6.47V224.05a27.67,27.67,0,0,0-4.13-7.15,28.64,28.64,0,0,0-5.91-5.64,29.9,29.9,0,0,0-7.08-3.71,22.08,22.08,0,0,0-7.63-1.37,22.42,22.42,0,0,0-10.79,2.54,25.79,25.79,0,0,0-8,6.67,29.45,29.45,0,0,0-5,9.35,33.53,33.53,0,0,0-1.72,10.58,29.57,29.57,0,0,0,2.06,11,28.77,28.77,0,0,0,5.71,9.15,27.23,27.23,0,0,0,8.45,6.18,24.09,24.09,0,0,0,10.45,2.27" transform="translate(0 -1.46)"/><path class="cls-5" d="M265.78,1.46a532.78,532.78,0,0,0-63,80.38,436.83,436.83,0,0,0-49.19,105.69,392.37,392.37,0,0,0-11.82,49.81l-48-131.93q-9.48,15.74-17.39,32l59.72,164.08h27.56c0-1.33,0-2.65,0-4C164.78,187.8,212.42,85.89,300,1.46Z" transform="translate(0 -1.46)"/><path class="cls-5" d="M64.07,137.82c.11-.25.22-.49.34-.74q2.22-4.71,4.57-9.37c.74-1.48,1.5-2.95,2.26-4.42q3.67-7.1,7.66-14.1,2.61-4.59,5.34-9.14,2.33-3.87,4.76-7.7,7.53-12,15.94-23.61,3.16-4.39,6.47-8.74,8.25-10.87,17.28-21.46,3.6-4.23,7.34-8.41Q149.1,15.48,163.64,1.46H129.42c-1.51,1.6-3,3.2-4.5,4.81q-4.47,4.83-8.79,9.73t-8.5,9.84c-1.39,1.65-2.77,3.31-4.13,5q-4.09,5-8,10T87.72,50.93Q76.37,66.17,66.42,81.84q-8.09,12.72-15.21,25.74c-.6,1.09-1.19,2.17-1.77,3.26q-1.75,3.25-3.45,6.54t-3.32,6.56q-8.54,17.2-15.4,34.77V75.84L0,83.28V301.46H27.27a379.92,379.92,0,0,1,10-86.77c.77-3.32,1.6-6.63,2.46-9.93.44-1.65.88-3.3,1.34-4.95q1.37-4.94,2.87-9.84,2.49-8.15,5.35-16.19l6,16.46L95.75,301.46h27.88l-54.23-149Z" transform="translate(0 -1.46)"/></g></svg>